# xmcd
#
# Track frame offsets:
#	150
#	16393
#	35375
#	51908
#	68146
#	81950
#	101677
#	113266
#	127739
#	140715
#	158685
#	169921
#	183290
#	202848
#	216494
#	233637
#	251313
#	269592
#
# Disc length: 3734 seconds
#
# Revision: 0
# Processed by: cddbd v1.5.2PL0 Copyright (c) Steve Scherf et al.
# Submitted via: EasyCDDAExtractor 12.0.0.1
#
DISCID=f10e9412
DTITLE=Various Artist - Tracking New Horizons
DYEAR=2008
DGENRE=Country
TTITLE0=Corey Noll - The Station
TTITLE1=Barry Lewis - Dirt Roads and Dingo Tracks
TTITLE2=John Sharp - Don't Let Emu's Drink Your Home Brew
TTITLE3=Jacqueline Crawford and Natasha McKenzie - Not Knowing (Lost Generation)
TTITLE4=Marilyn Black - Prayin' For Rain
TTITLE5=Ben Todd - Sweetness
TTITLE6=Desert Voices - Welcome To The North
TTITLE7=Sandy Morris - When The Coals Are Glowin'
TTITLE8=Nicole Walkum - Andamooka Sunset
TTITLE9=David Crombie - God Is Real
TTITLE10=Bronwyn Stuart - Budda
TTITLE11=Greg Norris - Desperate World
TTITLE12=JD's Band - My Times Just Begun
TTITLE13=Rex Stuart - Finnis Springs
TTITLE14=Animosity - Untitled
TTITLE15=Three Piece Feed - Girl Of The North
TTITLE16=Bob McLeod - Yesterdays Gone
TTITLE17=Bluey Matthews - Two Step
EXTD=
EXTT0=
EXTT1=
EXTT2=
EXTT3=
EXTT4=
EXTT5=
EXTT6=
EXTT7=
EXTT8=
EXTT9=
EXTT10=
EXTT11=
EXTT12=
EXTT13=
EXTT14=
EXTT15=
EXTT16=
EXTT17=
PLAYORDER=
